<svg xmlns="http://www.w3.org/2000/svg" viewBox="0 0 44 24">
  <!-- Main body — balanced proportions, car faces RIGHT -->
  <path d="M5,5 L37,5 L42,12 L37,19 L5,19 Q2,16 2,12 Q2,8 5,5Z" fill="none" stroke="#00ffff" stroke-width="1.5"/>
  <!-- Cockpit canopy -->
  <path d="M18,7.5 L29,7.5 L29,16.5 L18,16.5 Q16,14.5 16,12 Q16,9.5 18,7.5Z" fill="#00ffff" fill-opacity="0.18" stroke="#00ffff" stroke-width="0.8"/>
  <!-- Rear wing stubs -->
  <rect x="2" y="3" width="4.5" height="3.5" rx="0.5" fill="none" stroke="#00ffff" stroke-width="0.8" opacity="0.55"/>
  <rect x="2" y="17.5" width="4.5" height="3.5" rx="0.5" fill="none" stroke="#00ffff" stroke-width="0.8" opacity="0.55"/>
  <!-- Wheel covers -->
  <ellipse cx="11" cy="3.5" rx="5.5" ry="2.5" fill="none" stroke="#00ffff" stroke-width="0.8" opacity="0.45"/>
  <ellipse cx="11" cy="20.5" rx="5.5" ry="2.5" fill="none" stroke="#00ffff" stroke-width="0.8" opacity="0.45"/>
  <ellipse cx="30" cy="3.5" rx="5.5" ry="2.5" fill="none" stroke="#00ffff" stroke-width="0.8" opacity="0.45"/>
  <ellipse cx="30" cy="20.5" rx="5.5" ry="2.5" fill="none" stroke="#00ffff" stroke-width="0.8" opacity="0.45"/>
  <!-- Headlight -->
  <circle cx="41" cy="12" r="1.8" fill="#dddddd" opacity="0.7"/>
</svg>
