<svg width="44" height="24" viewBox="0 0 44 24" fill="none" xmlns="http://www.w3.org/2000/svg">
<path d="M4 8.1025C4 6.9587 4.95751 6.04788 6.09988 6.10499L38.0999 7.70499C39.1643 7.75821 40 8.63675 40 9.7025V14.2975C40 15.3632 39.1643 16.2418 38.0999 16.295L6.09988 17.895C4.95751 17.9521 4 17.0413 4 15.8975V8.1025Z" stroke="#00FFFF" stroke-width="1.5"/>
<rect x="18" y="9" width="8" height="6" rx="2" fill="#194747" stroke="#00FFFF" stroke-width="1.5"/>
<path d="M15 5.5C15 3.84315 13.6569 2.5 12 2.5H10C8.34315 2.5 7 3.84315 7 5.5" stroke="#00FFFF" stroke-width="1.5"/>
<path d="M7 18.5C7 20.1569 8.34315 21.5 10 21.5H12C13.6569 21.5 15 20.1569 15 18.5" stroke="#00FFFF" stroke-width="1.5"/>
<rect x="28" y="2.5" width="8" height="3" rx="1.5" stroke="#00FFFF" stroke-width="1.5"/>
<rect x="28" y="18.5" width="8" height="3" rx="1.5" stroke="#00FFFF" stroke-width="1.5"/>
<rect x="7" y="8" width="3" height="8" fill="#D9D9D9"/>
<rect x="7" y="8" width="3" height="8" rx="1.5" fill="#194747" stroke="#00FFFF" stroke-width="1.5"/>
<rect x="38" y="10" width="2" height="4" rx="1" stroke="#00FFFF" stroke-width="1.5"/>
</svg>
